<svg version="1.1" id="Layer_1" xmlns="http://www.w3.org/2000/svg" xmlns:xlink="http://www.w3.org/1999/xlink" x="0px" y="0px"
	 width="100%" viewBox="0 0 317 286" enable-background="new 0 0 317 286" xml:space="preserve">
<path fill="#F1F1F1" opacity="1.000000" stroke="none" 
	d="
M318.000000,66.000000 
	C318.000000,139.999985 318.000000,213.499985 318.000000,287.000000 
	C212.333359,287.000000 106.666733,287.000000 1.000072,287.000000 
	C1.000048,191.666718 1.000048,96.333435 1.000024,1.000111 
	C106.666595,1.000074 212.333191,1.000074 317.999878,1.000037 
	C318.000000,22.500000 318.000000,44.000000 318.000000,66.000000 
M82.079300,6.038742 
	C69.288528,6.039722 56.490627,5.799452 43.710972,6.176907 
	C39.431053,6.303318 35.197681,8.005678 30.211636,8.968000 
	C16.702793,15.000880 9.187530,25.447521 7.078761,40.956551 
	C7.056581,109.636528 7.033733,178.316513 7.022118,246.996490 
	C7.022007,247.654205 7.171192,248.311966 7.255656,249.733826 
	C7.822127,251.616959 8.741994,253.471298 8.898107,255.387848 
	C9.965075,268.486877 27.608547,282.154755 40.954041,282.943481 
	C118.619469,282.953186 196.284897,282.963531 273.950317,282.964996 
	C274.946503,282.965027 275.942688,282.851746 277.713226,282.882568 
	C284.526398,281.083862 290.680115,278.593079 296.250397,273.641571 
	C303.764160,266.962463 307.919098,259.178802 309.609192,248.712845 
	C309.739685,246.892532 309.983673,245.072235 309.984222,243.251892 
	C310.004242,177.314377 310.010468,111.376862 309.964661,45.439381 
	C309.963074,43.164593 309.408844,40.890190 309.116943,37.820450 
	C307.438110,33.518070 305.822571,29.189659 304.066864,24.918867 
	C300.683136,16.687706 294.525238,11.531276 285.631958,8.354149 
	C282.290527,7.576783 278.954803,6.157873 275.606750,6.128272 
	C256.735962,5.961430 237.862228,6.128457 218.061295,6.054231 
	C173.043472,6.097118 128.025635,6.140005 82.079300,6.038742 
z"/>
<path fill="#115892" opacity="1.000000" stroke="none" 
	d="
M40.027672,282.801514 
	C27.608547,282.154755 9.965075,268.486877 8.898107,255.387848 
	C8.741994,253.471298 7.822127,251.616959 7.484099,249.013062 
	C7.807841,247.304123 7.986360,246.315994 7.986562,245.327820 
	C8.000219,178.353104 8.003833,111.378403 7.971716,44.403706 
	C7.971021,42.953445 7.546704,41.503387 7.320002,40.053238 
	C9.187530,25.447521 16.702793,15.000880 31.018797,8.975275 
	C40.557758,8.322346 49.279919,7.420140 58.024143,7.071755 
	C66.339722,6.740448 74.678360,6.987911 83.475067,6.985393 
	C128.959808,6.987450 173.976334,6.985013 219.462219,6.989968 
	C241.982254,7.687675 264.126038,5.260084 286.086456,8.973165 
	C294.525238,11.531276 300.683136,16.687706 304.066864,24.918867 
	C305.822571,29.189659 307.438110,33.518070 309.077881,38.717216 
	C309.022217,77.755775 308.984283,115.897575 308.995575,154.039368 
	C309.005035,185.851089 309.072205,217.662796 309.113800,249.474518 
	C307.919098,259.178802 303.764160,266.962463 296.250397,273.641571 
	C290.680115,278.593079 284.526398,281.083862 276.995270,282.597900 
	C274.957214,282.205353 273.637115,282.003326 272.316986,282.003052 
	C196.486664,281.986481 120.656342,281.981689 44.826035,282.019318 
	C43.226452,282.020081 41.627121,282.529419 40.027672,282.801514 
M198.105560,189.102844 
	C198.105560,189.102844 198.130524,189.225800 198.651718,189.035599 
	C198.841232,188.728882 199.030746,188.422165 199.124939,188.105606 
	C199.124939,188.105606 199.163010,188.193542 199.833817,187.837234 
	C199.961395,187.732376 200.076782,187.603745 200.220337,187.530014 
	C200.340256,187.468460 200.613708,187.445404 200.614502,187.449081 
	C200.906189,188.812088 201.530167,190.216110 201.389420,191.538635 
	C200.955887,195.612381 202.399506,197.105576 206.631561,196.856049 
	C212.181931,196.528809 217.771683,196.869659 224.139832,196.536682 
	C224.427277,195.127441 224.962372,193.718750 224.965393,192.308899 
	C225.019897,166.952560 225.024765,141.596069 224.974823,116.239731 
	C224.972061,114.836258 224.400589,113.433899 223.678619,111.469971 
	C222.794052,111.319992 221.909485,111.170013 220.228394,110.839218 
	C219.146561,110.901276 218.064728,110.963333 216.170929,110.839401 
	C214.790497,110.905487 213.410065,110.971573 211.199188,110.867126 
	C209.792999,110.933502 208.386826,110.999870 206.106125,110.897736 
	C204.532928,110.897736 202.959732,110.897736 201.173874,110.897736 
	C201.035583,113.547760 200.918839,115.784698 200.318970,118.687538 
	C200.241058,134.661774 200.163147,150.636002 200.216629,167.280182 
	C199.108093,169.495850 197.999557,171.711517 196.969727,173.960663 
	C196.969727,173.960663 196.946793,173.878265 196.440430,174.061203 
	C196.247131,174.353058 196.053818,174.644913 195.944427,174.952072 
	C195.944427,174.952072 195.916672,174.871399 195.195816,175.065598 
	C191.474045,176.090515 187.752274,177.115433 183.387680,177.983551 
	C182.585876,177.651230 181.784088,177.318909 180.637558,176.487335 
	C180.060684,176.340042 179.483826,176.192749 178.976273,176.016220 
	C178.976273,176.016220 178.964371,176.090500 178.868042,175.358505 
	C177.826843,174.974350 176.785629,174.590195 175.860840,174.150238 
	C175.860840,174.150238 175.869324,174.279053 175.710022,173.721680 
	C175.398117,173.513199 175.086227,173.304718 174.885010,173.092407 
	C174.885010,173.092407 174.852951,173.198410 174.937592,172.350510 
	C174.295654,165.002106 173.312180,157.663864 173.092743,150.302872 
	C172.772507,139.561890 173.051498,128.804047 172.943588,118.054710 
	C172.926865,116.388878 172.210434,114.730080 171.450241,112.409531 
	C171.333084,111.920830 171.215927,111.432129 171.382278,110.427727 
	C168.586975,110.462868 165.791656,110.498009 162.307007,110.740082 
	C161.835754,110.679031 161.364517,110.617981 160.195633,110.225929 
	C156.823669,110.359688 153.451691,110.493439 149.314163,111.136147 
	C149.230515,133.220032 148.922882,155.306915 149.216934,177.385773 
	C149.292755,183.077286 152.016479,188.644577 157.023865,191.803238 
	C160.951797,194.280960 165.714386,195.450699 170.131805,197.134262 
	C180.721451,201.170166 189.242599,196.982285 197.635117,190.052444 
	C197.833588,189.739624 198.032059,189.426804 198.105560,189.102844 
M123.916176,181.917526 
	C123.916176,181.917526 123.806526,181.903442 124.331917,181.706589 
	C124.500694,181.385437 124.669479,181.064301 124.862549,180.870087 
	C124.862549,180.870087 124.735207,180.848007 125.282913,180.662582 
	C125.412956,180.318283 125.542999,179.973984 125.708801,179.760071 
	C125.708801,179.760071 125.585350,179.704956 126.220947,179.608795 
	C126.470940,179.055237 126.720924,178.501694 127.004814,177.991714 
	C127.004814,177.991714 126.951653,177.977020 127.663368,177.860474 
	C128.085159,176.848312 128.506943,175.836166 129.070404,174.142334 
	C131.689728,168.356094 135.984726,162.735046 136.574844,156.748764 
	C137.754364,144.783722 138.098358,132.463791 136.558929,120.579071 
	C134.985092,108.428658 129.599686,97.292488 120.125854,88.624229 
	C107.635399,77.195847 92.804665,73.964241 76.586182,76.061020 
	C53.924397,78.990799 37.303185,94.557137 32.275467,120.005241 
	C31.912123,129.324966 31.548780,138.644699 31.131992,148.670151 
	C31.282047,149.111023 31.432104,149.551880 31.403404,150.758270 
	C32.213818,153.719574 33.024227,156.680862 33.738293,159.833115 
	C33.738293,159.833115 33.884216,159.989487 33.895947,160.732498 
	C34.578442,162.516739 35.260941,164.300964 35.988186,166.022385 
	C35.988186,166.022385 35.911709,166.032364 35.950352,166.762436 
	C37.271088,169.215424 38.591824,171.668396 39.970772,174.032623 
	C39.970772,174.032623 39.875175,174.078751 40.042122,174.701324 
	C41.002098,175.835342 41.962074,176.969376 42.986950,178.019882 
	C42.986950,178.019882 42.893917,178.070190 43.048946,178.670547 
	C43.679771,179.467590 44.310593,180.264648 45.101631,181.715866 
	C54.113789,192.195267 65.331596,198.117935 79.336182,198.249207 
	C87.129707,198.322250 95.095337,199.995468 102.504410,196.141678 
	C107.624207,193.478653 112.650490,190.635818 118.502480,187.935730 
	C121.754890,187.788834 123.134338,186.025436 122.936264,182.947388 
	C122.936264,182.947388 122.838600,182.913055 123.349022,182.719452 
	C123.533173,182.415619 123.717316,182.111786 123.916176,181.917526 
M266.432373,87.499496 
	C259.136200,87.340355 251.840088,87.176308 244.543152,87.066460 
	C244.428085,87.064735 244.302994,87.729088 244.004974,88.994781 
	C244.004974,96.232079 244.004974,103.469383 244.004974,111.055824 
	C239.775223,111.055824 236.338806,111.055824 232.400528,111.055824 
	C232.400528,114.534271 232.386948,117.650368 232.403122,120.766319 
	C232.448608,129.522720 232.450668,129.585526 241.230209,129.970963 
	C243.432907,130.067657 244.886597,130.345657 243.445786,133.593536 
	C243.331650,147.198471 243.205322,160.803360 243.148499,174.408524 
	C243.146240,174.946075 243.806412,175.486374 244.565720,176.676880 
	C245.294891,185.754044 249.534409,192.695328 258.174713,195.737335 
	C265.652252,198.369995 273.623291,198.048615 281.238708,195.810974 
	C282.786102,195.356323 284.262085,192.752304 284.704071,190.886414 
	C285.376038,188.049652 284.835632,184.945435 285.319000,182.039459 
	C285.989410,178.008499 285.085449,176.824829 281.142883,177.508240 
	C279.508820,177.791489 277.885895,178.194443 276.239868,178.342545 
	C270.738495,178.837448 267.736084,176.650909 267.653351,171.279572 
	C267.441406,157.514145 267.582611,143.743301 267.582611,129.719818 
	C272.959808,129.719818 278.339508,129.719818 284.008331,129.719818 
	C284.008331,123.366112 284.008331,117.324715 284.008331,111.411972 
	C278.050507,110.902176 272.521942,110.429108 267.126312,109.036217 
	C267.074280,102.072525 267.022247,95.108841 266.432373,87.499496 
z"/>
<path fill="#0F3C62" opacity="1.000000" stroke="none" 
	d="
M40.490856,282.872498 
	C41.627121,282.529419 43.226452,282.020081 44.826035,282.019318 
	C120.656342,281.981689 196.486664,281.986481 272.316986,282.003052 
	C273.637115,282.003326 274.957214,282.205353 276.608093,282.552246 
	C275.942688,282.851746 274.946503,282.965027 273.950317,282.964996 
	C196.284897,282.963531 118.619469,282.953186 40.490856,282.872498 
z"/>
<path fill="#295279" opacity="1.000000" stroke="none" 
	d="
M309.361511,249.093689 
	C309.072205,217.662796 309.005035,185.851089 308.995575,154.039368 
	C308.984283,115.897575 309.022217,77.755775 309.075500,39.114792 
	C309.408844,40.890190 309.963074,43.164593 309.964661,45.439381 
	C310.010468,111.376862 310.004242,177.314377 309.984222,243.251892 
	C309.983673,245.072235 309.739685,246.892532 309.361511,249.093689 
z"/>
<path fill="#205180" opacity="1.000000" stroke="none" 
	d="
M7.199381,40.504894 
	C7.546704,41.503387 7.971021,42.953445 7.971716,44.403706 
	C8.003833,111.378403 8.000219,178.353104 7.986562,245.327820 
	C7.986360,246.315994 7.807841,247.304123 7.481610,248.630981 
	C7.171192,248.311966 7.022007,247.654205 7.022118,246.996490 
	C7.033733,178.316513 7.056581,109.636528 7.199381,40.504894 
z"/>
<path fill="#0E4474" opacity="1.000000" stroke="none" 
	d="
M218.992874,6.982577 
	C173.976334,6.985013 128.959808,6.987450 83.474365,6.786001 
	C83.005455,6.582116 83.007812,6.182891 83.007812,6.182891 
	C128.025635,6.140005 173.043472,6.097118 218.527466,6.318170 
	C218.993652,6.582108 218.992874,6.982577 218.992874,6.982577 
z"/>
<path fill="#184D7B" opacity="1.000000" stroke="none" 
	d="
M219.462219,6.989968 
	C218.992874,6.982577 218.993652,6.582108 218.991577,6.381885 
	C237.862228,6.128457 256.735962,5.961430 275.606750,6.128272 
	C278.954803,6.157873 282.290527,7.576783 285.859192,8.663656 
	C264.126038,5.260084 241.982254,7.687675 219.462219,6.989968 
z"/>
<path fill="#154B7A" opacity="1.000000" stroke="none" 
	d="
M82.543556,6.110817 
	C83.007812,6.182891 83.005455,6.582116 83.006157,6.781507 
	C74.678360,6.987911 66.339722,6.740448 58.024143,7.071755 
	C49.279919,7.420140 40.557758,8.322346 31.384495,8.985114 
	C35.197681,8.005678 39.431053,6.303318 43.710972,6.176907 
	C56.490627,5.799452 69.288528,6.039722 82.543556,6.110817 
z"/>
<path fill="#EFF1F3" opacity="1.000000" stroke="none" 
	d="
M32.840454,119.369316 
	C37.303185,94.557137 53.924397,78.990799 76.586182,76.061020 
	C92.804665,73.964241 107.635399,77.195847 120.125854,88.624229 
	C129.599686,97.292488 134.985092,108.428658 136.558929,120.579071 
	C138.098358,132.463791 137.754364,144.783722 136.574844,156.748764 
	C135.984726,162.735046 131.689728,168.356094 128.716370,174.639465 
	C127.892113,176.083405 127.421883,177.030212 126.951645,177.977020 
	C126.951653,177.977020 127.004814,177.991714 126.732712,178.107758 
	C126.168854,178.717529 125.877106,179.211243 125.585350,179.704956 
	C125.585350,179.704956 125.708801,179.760071 125.448853,179.818665 
	C125.037674,180.200836 124.886444,180.524429 124.735207,180.848007 
	C124.735207,180.848007 124.862549,180.870087 124.593307,180.909851 
	C124.151558,181.267548 123.979042,181.585495 123.806526,181.903442 
	C123.806526,181.903442 123.916176,181.917526 123.653503,181.959305 
	C123.206757,182.305069 123.022682,182.609070 122.838600,182.913055 
	C122.838600,182.913055 122.936264,182.947388 122.611557,183.037262 
	C120.764076,184.709183 119.241310,186.291245 117.718559,187.873322 
	C112.650490,190.635818 107.624207,193.478653 102.504410,196.141678 
	C95.095337,199.995468 87.129707,198.322250 79.336182,198.249207 
	C65.331596,198.117935 54.113789,192.195267 45.033638,181.028778 
	C44.275070,179.584534 43.584492,178.827362 42.893913,178.070190 
	C42.893917,178.070190 42.986950,178.019882 42.974304,177.686493 
	C41.932835,176.261658 40.904003,175.170197 39.875175,174.078751 
	C39.875175,174.078751 39.970772,174.032623 39.964676,173.697144 
	C38.609623,170.918549 37.260666,168.475464 35.911709,166.032364 
	C35.911709,166.032364 35.988186,166.022385 35.985233,165.654846 
	C35.282925,163.521362 34.583572,161.755417 33.884216,159.989487 
	C33.884216,159.989487 33.738293,159.833115 33.827614,159.248596 
	C32.917744,155.833115 36.448444,151.782471 31.582157,149.992752 
	C31.432104,149.551880 31.282047,149.111023 31.403675,147.988586 
	C32.063725,137.994446 32.452087,128.681885 32.840454,119.369316 
M104.858078,106.511345 
	C104.573441,106.333359 104.288811,106.155373 103.997231,106.001236 
	C103.997231,106.001236 104.020515,105.993034 103.777046,105.391510 
	C102.564018,104.531273 101.350990,103.671036 99.746796,102.243073 
	C92.990791,98.637260 86.611916,96.323479 78.203072,98.471222 
	C71.167900,100.268105 65.737167,103.011238 62.463795,108.891296 
	C52.398979,126.971001 51.925148,145.708298 61.489353,164.004837 
	C67.393425,175.299469 77.405807,178.819580 89.702477,176.235184 
	C102.641594,173.515793 109.131538,164.915070 112.162498,152.666931 
	C112.162498,152.666931 112.027771,152.388321 112.437286,151.640732 
	C112.538490,151.085297 112.639687,150.529846 112.987923,149.157410 
	C113.989189,139.173828 114.512405,129.219055 111.255211,119.206276 
	C111.255211,119.206276 111.072472,118.975601 111.110580,118.288452 
	C110.813423,117.702278 110.516266,117.116104 110.233513,116.224472 
	C110.233513,116.224472 110.036453,115.990639 110.062050,115.313881 
	C109.386314,114.190582 108.710579,113.067291 107.997047,111.989807 
	C107.997047,111.989807 108.056038,111.983002 107.990204,111.425163 
	C107.634476,110.998955 107.278740,110.572739 106.965347,110.080688 
	C106.965347,110.080688 106.892052,110.053207 106.856583,109.427429 
	C106.231255,108.625504 105.605934,107.823578 105.000305,107.000305 
	C105.000305,107.000305 104.976746,107.016403 104.858078,106.511345 
z"/>
<path fill="#EFF1F2" opacity="1.000000" stroke="none" 
	d="
M197.111511,190.272430 
	C189.242599,196.982285 180.721451,201.170166 170.131805,197.134262 
	C165.714386,195.450699 160.951797,194.280960 157.023865,191.803238 
	C152.016479,188.644577 149.292755,183.077286 149.216934,177.385773 
	C148.922882,155.306915 149.230515,133.220032 150.141907,110.966461 
	C154.277527,110.716827 157.585403,110.636879 160.893265,110.556931 
	C161.364517,110.617981 161.835754,110.679031 163.094360,110.726273 
	C166.287399,110.789459 168.693085,110.866440 171.098785,110.943428 
	C171.215927,111.432129 171.333084,111.920830 171.508377,113.125130 
	C171.695374,130.582336 171.683823,147.327271 172.080612,164.062531 
	C172.153275,167.128006 173.886322,170.154129 174.852951,173.198410 
	C174.852951,173.198410 174.885010,173.092407 174.915588,173.369598 
	C175.253876,173.857544 175.561600,174.068298 175.869324,174.279053 
	C175.869324,174.279053 175.860840,174.150238 175.953491,174.468414 
	C177.018890,175.221222 177.991623,175.655853 178.964371,176.090500 
	C178.964371,176.090500 178.976273,176.016220 179.104858,176.291840 
	C179.816406,176.707169 180.399338,176.846878 180.982285,176.986588 
	C181.784088,177.318909 182.585876,177.651230 184.010071,178.308990 
	C188.960434,179.079010 193.462830,180.046707 195.916672,174.871399 
	C195.916672,174.871399 195.944427,174.952072 196.151154,174.847015 
	C196.554169,174.454071 196.750473,174.166168 196.946793,173.878265 
	C196.946793,173.878265 196.969727,173.960663 197.324539,173.959595 
	C202.113113,173.378372 201.964020,169.949112 201.976517,166.798386 
	C202.031235,152.989868 201.967667,139.180923 202.013184,125.372353 
	C202.030685,120.064293 200.246750,114.067955 206.980637,111.066238 
	C208.386826,110.999870 209.792999,110.933502 211.826675,111.202225 
	C213.963745,111.366676 215.473312,111.196030 216.982895,111.025391 
	C218.064728,110.963333 219.146561,110.901276 220.675690,111.343369 
	C221.416672,113.963074 221.951874,116.077171 221.964539,118.194405 
	C222.043091,131.307175 221.899918,144.421707 222.037094,157.533508 
	C222.147903,168.122940 222.688644,178.708679 222.736206,189.297409 
	C222.750122,192.395218 222.147415,195.682861 217.389221,195.070023 
	C214.450073,194.691483 211.403397,194.784988 208.439529,195.051163 
	C204.544662,195.400970 202.505325,194.377136 202.853531,189.972946 
	C202.978897,188.387329 201.878632,186.704819 201.337692,185.066528 
	C200.859970,185.067535 200.382233,185.068542 199.904495,185.069550 
	C199.657333,186.110886 199.410172,187.152206 199.163010,188.193542 
	C199.163010,188.193542 199.124939,188.105606 198.907639,188.200592 
	C198.503723,188.605637 198.317123,188.915710 198.130524,189.225800 
	C198.130524,189.225800 198.105560,189.102844 197.897659,189.208588 
	C197.497009,189.633713 197.304276,189.953079 197.111511,190.272430 
z"/>
<path fill="#EDF0F2" opacity="1.000000" stroke="none" 
	d="
M244.048431,133.016861 
	C244.886597,130.345657 243.432907,130.067657 241.230209,129.970963 
	C232.450668,129.585526 232.448608,129.522720 232.403122,120.766319 
	C232.386948,117.650368 232.400528,114.534271 232.400528,111.055824 
	C236.338806,111.055824 239.775223,111.055824 244.004974,111.055824 
	C244.004974,103.469383 244.004974,96.232079 244.530304,88.564880 
	C247.698318,88.157791 250.341003,88.180595 253.318970,88.440216 
	C257.578064,88.875443 261.501892,89.073860 265.190125,89.260368 
	C265.812408,96.402359 266.402893,103.179199 266.993347,109.956039 
	C272.521942,110.429108 278.050507,110.902176 284.008331,111.411972 
	C284.008331,117.324715 284.008331,123.366112 284.008331,129.719818 
	C278.339508,129.719818 272.959808,129.719818 267.582611,129.719818 
	C267.582611,143.743301 267.441406,157.514145 267.653351,171.279572 
	C267.736084,176.650909 270.738495,178.837448 276.239868,178.342545 
	C277.885895,178.194443 279.508820,177.791489 281.142883,177.508240 
	C285.085449,176.824829 285.989410,178.008499 285.319000,182.039459 
	C284.835632,184.945435 285.376038,188.049652 284.704071,190.886414 
	C284.262085,192.752304 282.786102,195.356323 281.238708,195.810974 
	C273.623291,198.048615 265.652252,198.369995 258.174713,195.737335 
	C249.534409,192.695328 245.294891,185.754044 244.419922,175.884384 
	C244.198883,161.066879 244.123657,147.041870 244.048431,133.016861 
z"/>
<path fill="#E3F5FB" opacity="1.000000" stroke="none" 
	d="
M199.498413,188.015381 
	C199.410172,187.152206 199.657333,186.110886 199.904495,185.069550 
	C200.382233,185.068542 200.859970,185.067535 201.337692,185.066528 
	C201.878632,186.704819 202.978897,188.387329 202.853531,189.972946 
	C202.505325,194.377136 204.544662,195.400970 208.439529,195.051163 
	C211.403397,194.784988 214.450073,194.691483 217.389221,195.070023 
	C222.147415,195.682861 222.750122,192.395218 222.736206,189.297409 
	C222.688644,178.708679 222.147903,168.122940 222.037094,157.533508 
	C221.899918,144.421707 222.043091,131.307175 221.964539,118.194405 
	C221.951874,116.077171 221.416672,113.963074 221.073959,111.433777 
	C221.909485,111.170013 222.794052,111.319992 223.837921,112.214645 
	C224.003723,138.995926 224.024643,165.032547 223.987671,191.069092 
	C223.984909,193.020752 223.568573,194.971832 223.344498,196.923172 
	C217.771683,196.869659 212.181931,196.528809 206.631561,196.856049 
	C202.399506,197.105576 200.955887,195.612381 201.389420,191.538635 
	C201.530167,190.216110 200.906189,188.812088 200.614502,187.449081 
	C200.613708,187.445404 200.340256,187.468460 200.220337,187.530014 
	C200.076782,187.603745 199.961395,187.732376 199.498413,188.015381 
z"/>
<path fill="#E3F5FB" opacity="1.000000" stroke="none" 
	d="
M206.543381,110.981995 
	C200.246750,114.067955 202.030685,120.064293 202.013184,125.372353 
	C201.967667,139.180923 202.031235,152.989868 201.976517,166.798386 
	C201.964020,169.949112 202.113113,173.378372 197.285187,173.942841 
	C197.999557,171.711517 199.108093,169.495850 200.477478,166.610260 
	C200.759567,149.967438 200.780823,133.994537 200.802094,118.021629 
	C200.918839,115.784698 201.035583,113.547760 201.173874,110.897736 
	C202.959732,110.897736 204.532928,110.897736 206.543381,110.981995 
z"/>
<path fill="#1D496D" opacity="1.000000" stroke="none" 
	d="
M223.742157,196.729919 
	C223.568573,194.971832 223.984909,193.020752 223.987671,191.069092 
	C224.024643,165.032547 224.003723,138.995926 224.045532,112.495178 
	C224.400589,113.433899 224.972061,114.836258 224.974823,116.239731 
	C225.024765,141.596069 225.019897,166.952560 224.965393,192.308899 
	C224.962372,193.718750 224.427277,195.127441 223.742157,196.729919 
z"/>
<path fill="#184974" opacity="1.000000" stroke="none" 
	d="
M174.895264,172.774460 
	C173.886322,170.154129 172.153275,167.128006 172.080612,164.062531 
	C171.683823,147.327271 171.695374,130.582336 171.692047,113.454376 
	C172.210434,114.730080 172.926865,116.388878 172.943588,118.054710 
	C173.051498,128.804047 172.772507,139.561890 173.092743,150.302872 
	C173.312180,157.663864 174.295654,165.002106 174.895264,172.774460 
z"/>
<path fill="#184A77" opacity="1.000000" stroke="none" 
	d="
M200.560532,118.354584 
	C200.780823,133.994537 200.759567,149.967438 200.411774,166.275299 
	C200.163147,150.636002 200.241058,134.661774 200.560532,118.354584 
z"/>
<path fill="#154979" opacity="1.000000" stroke="none" 
	d="
M243.747101,133.305206 
	C244.123657,147.041870 244.198883,161.066879 244.216034,175.558640 
	C243.806412,175.486374 243.146240,174.946075 243.148499,174.408524 
	C243.205322,160.803360 243.331650,147.198471 243.747101,133.305206 
z"/>
<path fill="#E3F2FC" opacity="1.000000" stroke="none" 
	d="
M32.557961,119.687279 
	C32.452087,128.681885 32.063725,137.994446 31.430397,147.635712 
	C31.548780,138.644699 31.912123,129.324966 32.557961,119.687279 
z"/>
<path fill="#E5F7FD" opacity="1.000000" stroke="none" 
	d="
M267.059814,109.496124 
	C266.402893,103.179199 265.812408,96.402359 265.190125,89.260368 
	C261.501892,89.073860 257.578064,88.875443 253.778229,88.352684 
	C258.258240,88.067276 262.614227,88.106216 266.970215,88.145157 
	C267.022247,95.108841 267.074280,102.072525 267.059814,109.496124 
z"/>
<path fill="#154976" opacity="1.000000" stroke="none" 
	d="
M266.701294,87.822327 
	C262.614227,88.106216 258.258240,88.067276 253.442963,88.115875 
	C250.341003,88.180595 247.698318,88.157791 244.619095,88.108788 
	C244.302994,87.729088 244.428085,87.064735 244.543152,87.066460 
	C251.840088,87.176308 259.136200,87.340355 266.701294,87.822327 
z"/>
<path fill="#E3F5FB" opacity="1.000000" stroke="none" 
	d="
M195.556244,174.968506 
	C193.462830,180.046707 188.960434,179.079010 184.331497,178.387390 
	C187.752274,177.115433 191.474045,176.090515 195.556244,174.968506 
z"/>
<path fill="#E3F2FC" opacity="1.000000" stroke="none" 
	d="
M31.492781,150.375519 
	C36.448444,151.782471 32.917744,155.833115 33.875786,159.153107 
	C33.024227,156.680862 32.213818,153.719574 31.492781,150.375519 
z"/>
<path fill="#184974" opacity="1.000000" stroke="none" 
	d="
M171.240540,110.685577 
	C168.693085,110.866440 166.287399,110.789459 163.439026,110.622810 
	C165.791656,110.498009 168.586975,110.462868 171.240540,110.685577 
z"/>
<path fill="#E3F2FC" opacity="1.000000" stroke="none" 
	d="
M35.931030,166.397400 
	C37.260666,168.475464 38.609623,170.918549 39.935570,173.741516 
	C38.591824,171.668396 37.271088,169.215424 35.931030,166.397400 
z"/>
<path fill="#265982" opacity="1.000000" stroke="none" 
	d="
M118.110519,187.904510 
	C119.241310,186.291245 120.764076,184.709183 122.586349,182.992050 
	C123.134338,186.025436 121.754890,187.788834 118.110519,187.904510 
z"/>
<path fill="#184974" opacity="1.000000" stroke="none" 
	d="
M160.544449,110.391434 
	C157.585403,110.636879 154.277527,110.716827 150.524689,110.711983 
	C153.451691,110.493439 156.823669,110.359688 160.544449,110.391434 
z"/>
<path fill="#E3F2FC" opacity="1.000000" stroke="none" 
	d="
M39.958649,174.390045 
	C40.904003,175.170197 41.932835,176.261658 42.941856,177.728241 
	C41.962074,176.969376 41.002098,175.835342 39.958649,174.390045 
z"/>
<path fill="#E3F2FC" opacity="1.000000" stroke="none" 
	d="
M33.890083,160.360992 
	C34.583572,161.755417 35.282925,163.521362 35.962860,165.686249 
	C35.260941,164.300964 34.578442,162.516739 33.890083,160.360992 
z"/>
<path fill="#E3F5FB" opacity="1.000000" stroke="none" 
	d="
M216.576904,110.932388 
	C215.473312,111.196030 213.963745,111.366676 212.241898,111.287491 
	C213.410065,110.971573 214.790497,110.905487 216.576904,110.932388 
z"/>
<path fill="#184974" opacity="1.000000" stroke="none" 
	d="
M178.916199,175.724503 
	C177.991623,175.655853 177.018890,175.221222 175.895294,174.496323 
	C176.785629,174.590195 177.826843,174.974350 178.916199,175.724503 
z"/>
<path fill="#265982" opacity="1.000000" stroke="none" 
	d="
M127.307510,177.918747 
	C127.421883,177.030212 127.892113,176.083405 128.645538,174.980316 
	C128.506943,175.836166 128.085159,176.848312 127.307510,177.918747 
z"/>
<path fill="#E3F2FC" opacity="1.000000" stroke="none" 
	d="
M42.971428,178.370361 
	C43.584492,178.827362 44.275070,179.584534 44.953529,180.701691 
	C44.310593,180.264648 43.679771,179.467590 42.971428,178.370361 
z"/>
<path fill="#265982" opacity="1.000000" stroke="none" 
	d="
M125.903152,179.656876 
	C125.877106,179.211243 126.168854,178.717529 126.715759,178.085983 
	C126.720924,178.501694 126.470940,179.055237 125.903152,179.656876 
z"/>
<path fill="#184974" opacity="1.000000" stroke="none" 
	d="
M180.809921,176.736969 
	C180.399338,176.846878 179.816406,176.707169 179.070206,176.306458 
	C179.483826,176.192749 180.060684,176.340042 180.809921,176.736969 
z"/>
<path fill="#184974" opacity="1.000000" stroke="none" 
	d="
M175.789673,174.000366 
	C175.561600,174.068298 175.253876,173.857544 174.860260,173.371506 
	C175.086227,173.304718 175.398117,173.513199 175.789673,174.000366 
z"/>
<path fill="#265982" opacity="1.000000" stroke="none" 
	d="
M125.009064,180.755295 
	C124.886444,180.524429 125.037674,180.200836 125.430969,179.753479 
	C125.542999,179.973984 125.412956,180.318283 125.009064,180.755295 
z"/>
<path fill="#265982" opacity="1.000000" stroke="none" 
	d="
M124.069221,181.805023 
	C123.979042,181.585495 124.151558,181.267548 124.581169,180.846375 
	C124.669479,181.064301 124.500694,181.385437 124.069221,181.805023 
z"/>
<path fill="#265982" opacity="1.000000" stroke="none" 
	d="
M123.093811,182.816254 
	C123.022682,182.609070 123.206757,182.305069 123.646149,181.904510 
	C123.717316,182.111786 123.533173,182.415619 123.093811,182.816254 
z"/>
<path fill="#E3F5FB" opacity="1.000000" stroke="none" 
	d="
M198.391113,189.130692 
	C198.317123,188.915710 198.503723,188.605637 198.955292,188.205505 
	C199.030746,188.422165 198.841232,188.728882 198.391113,189.130692 
z"/>
<path fill="#E3F5FB" opacity="1.000000" stroke="none" 
	d="
M197.373322,190.162445 
	C197.304276,189.953079 197.497009,189.633713 197.960144,189.214172 
	C198.032059,189.426804 197.833588,189.739624 197.373322,190.162445 
z"/>
<path fill="#E3F5FB" opacity="1.000000" stroke="none" 
	d="
M196.693604,173.969727 
	C196.750473,174.166168 196.554169,174.454071 196.109192,174.839371 
	C196.053818,174.644913 196.247131,174.353058 196.693604,173.969727 
z"/>
<path fill="#125891" opacity="1.000000" stroke="none" 
	d="
M110.036453,115.990639 
	C110.036453,115.990639 110.233513,116.224472 110.187653,116.724854 
	C110.452019,117.808693 110.762245,118.392143 111.072472,118.975601 
	C111.072472,118.975601 111.255211,119.206276 111.169662,119.822014 
	C111.434250,125.356285 111.842125,130.271576 112.118248,135.194260 
	C112.394386,140.117126 112.538773,145.047394 112.740891,149.974411 
	C112.639687,150.529846 112.538490,151.085297 112.200653,152.067444 
	C111.964027,152.494141 111.968323,152.739563 111.968323,152.739563 
	C109.131538,164.915070 102.641594,173.515793 89.702477,176.235184 
	C77.405807,178.819580 67.393425,175.299469 61.489353,164.004837 
	C51.925148,145.708298 52.398979,126.971001 62.463795,108.891296 
	C65.737167,103.011238 71.167900,100.268105 78.203072,98.471222 
	C86.611916,96.323479 92.990791,98.637260 99.949051,102.891747 
	C101.441040,104.357956 102.730782,105.175491 104.020515,105.993034 
	C104.020515,105.993034 103.997231,106.001236 104.095184,106.218430 
	C104.385384,106.722252 104.646584,106.915848 104.976746,107.016403 
	C104.976746,107.016403 105.000305,107.000305 104.993439,107.354141 
	C105.621735,108.489723 106.256889,109.271469 106.892052,110.053207 
	C106.892052,110.053207 106.965347,110.080688 106.974800,110.399887 
	C107.341515,111.140396 107.698776,111.561699 108.056046,111.983002 
	C108.056038,111.983002 107.997047,111.989807 107.998322,112.345421 
	C108.678551,113.797569 109.357506,114.894104 110.036453,115.990639 
z"/>
<path fill="#326189" opacity="1.000000" stroke="none" 
	d="
M112.864410,149.565918 
	C112.538773,145.047394 112.394386,140.117126 112.118248,135.194260 
	C111.842125,130.271576 111.434250,125.356285 111.142250,119.966583 
	C114.512405,129.219055 113.989189,139.173828 112.864410,149.565918 
z"/>
<path fill="#326189" opacity="1.000000" stroke="none" 
	d="
M103.898781,105.692276 
	C102.730782,105.175491 101.441040,104.357956 100.144630,103.175613 
	C101.350990,103.671036 102.564018,104.531273 103.898781,105.692276 
z"/>
<path fill="#326189" opacity="1.000000" stroke="none" 
	d="
M110.049255,115.652260 
	C109.357506,114.894104 108.678551,113.797569 108.017227,112.322517 
	C108.710579,113.067291 109.386314,114.190582 110.049255,115.652260 
z"/>
<path fill="#326189" opacity="1.000000" stroke="none" 
	d="
M106.874313,109.740318 
	C106.256889,109.271469 105.621735,108.489723 104.983589,107.364822 
	C105.605934,107.823578 106.231255,108.625504 106.874313,109.740318 
z"/>
<path fill="#326189" opacity="1.000000" stroke="none" 
	d="
M111.091522,118.632027 
	C110.762245,118.392143 110.452019,117.808693 110.180450,116.877579 
	C110.516266,117.116104 110.813423,117.702278 111.091522,118.632027 
z"/>
<path fill="#326189" opacity="1.000000" stroke="none" 
	d="
M108.023125,111.704079 
	C107.698776,111.561699 107.341515,111.140396 106.953629,110.432816 
	C107.278740,110.572739 107.634476,110.998955 108.023125,111.704079 
z"/>
<path fill="#326189" opacity="1.000000" stroke="none" 
	d="
M104.917412,106.763870 
	C104.646584,106.915848 104.385384,106.722252 104.098663,106.206512 
	C104.288811,106.155373 104.573441,106.333359 104.917412,106.763870 
z"/>
<path fill="#326189" opacity="1.000000" stroke="none" 
	d="
M112.065414,152.703247 
	C111.968323,152.739563 111.964027,152.494141 111.995895,152.441223 
	C112.027771,152.388321 112.162498,152.666931 112.065414,152.703247 
z"/>
</svg>